<?xml version="1.0" encoding="UTF-8" standalone="no"?><svg xmlns="http://www.w3.org/2000/svg" xmlns:xlink="http://www.w3.org/1999/xlink" contentScriptType="application/ecmascript" contentStyleType="text/css" height="951px" preserveAspectRatio="none" style="width:770px;height:951px;" version="1.1" viewBox="0 0 770 951" width="770px" zoomAndPan="magnify"><defs><filter height="300%" id="fe24u7k5jrebq" width="300%" x="-1" y="-1"><feGaussianBlur result="blurOut" stdDeviation="2.0"/><feColorMatrix in="blurOut" result="blurOut2" type="matrix" values="0 0 0 0 0 0 0 0 0 0 0 0 0 0 0 0 0 0 .4 0"/><feOffset dx="4.0" dy="4.0" in="blurOut2" result="blurOut3"/><feBlend in="SourceGraphic" in2="blurOut3" mode="normal"/></filter></defs><g><rect fill="#FFFFFF" filter="url(#fe24u7k5jrebq)" height="132.6851" style="stroke: #000000; stroke-width: 2.0;" width="375" x="305" y="202.897"/><rect fill="#FFFFFF" filter="url(#fe24u7k5jrebq)" height="338.4331" style="stroke: #000000; stroke-width: 2.0;" width="464" x="295" y="376.582"/><rect fill="#FFFFFF" filter="url(#fe24u7k5jrebq)" height="238.5591" style="stroke: #000000; stroke-width: 2.0;" width="444" x="305" y="442.4561"/><rect fill="#FFFFFF" filter="url(#fe24u7k5jrebq)" height="89.4499" style="stroke: #000000; stroke-width: 2.0;" width="260.5" x="13" y="757.9522"/><rect fill="#FFFFFF" height="43.5759" style="stroke: none; stroke-width: 1.0;" width="260.5" x="13" y="803.8262"/><line style="stroke: #A80036; stroke-width: 1.0; stroke-dasharray: 5.0,5.0;" x1="55" x2="55" y1="86.0859" y2="864.4021"/><line style="stroke: #A80036; stroke-width: 1.0; stroke-dasharray: 5.0,5.0;" x1="238.5" x2="238.5" y1="86.0859" y2="864.4021"/><line style="stroke: #A80036; stroke-width: 1.0; stroke-dasharray: 5.0,5.0;" x1="346" x2="346" y1="86.0859" y2="864.4021"/><line style="stroke: #A80036; stroke-width: 1.0; stroke-dasharray: 5.0,5.0;" x1="487" x2="487" y1="86.0859" y2="864.4021"/><line style="stroke: #A80036; stroke-width: 1.0; stroke-dasharray: 5.0,5.0;" x1="529" x2="529" y1="86.0859" y2="864.4021"/><line style="stroke: #A80036; stroke-width: 1.0; stroke-dasharray: 5.0,5.0;" x1="572" x2="572" y1="86.0859" y2="864.4021"/><line style="stroke: #A80036; stroke-width: 1.0; stroke-dasharray: 5.0,5.0;" x1="635" x2="635" y1="86.0859" y2="864.4021"/><line style="stroke: #A80036; stroke-width: 1.0; stroke-dasharray: 5.0,5.0;" x1="700" x2="700" y1="86.0859" y2="864.4021"/><text fill="#000000" font-family="sans-serif" font-size="14" lengthAdjust="spacingAndGlyphs" textLength="58" x="23" y="83.4399">Magneto</text><ellipse cx="55" cy="13" fill="#FEFECE" filter="url(#fe24u7k5jrebq)" rx="8" ry="8" style="stroke: #A80036; stroke-width: 2.0;"/><path d="M55,21 L55,48 M42,29 L68,29 M55,48 L42,63 M55,48 L68,63 " fill="none" filter="url(#fe24u7k5jrebq)" style="stroke: #A80036; stroke-width: 2.0;"/><text fill="#000000" font-family="sans-serif" font-size="14" lengthAdjust="spacingAndGlyphs" textLength="58" x="23" y="876.8421">Magneto</text><ellipse cx="55" cy="889.4881" fill="#FEFECE" filter="url(#fe24u7k5jrebq)" rx="8" ry="8" style="stroke: #A80036; stroke-width: 2.0;"/><path d="M55,897.4881 L55,924.4881 M42,905.4881 L68,905.4881 M55,924.4881 L42,939.4881 M55,924.4881 L68,939.4881 " fill="none" filter="url(#fe24u7k5jrebq)" style="stroke: #A80036; stroke-width: 2.0;"/><text fill="#000000" font-family="sans-serif" font-size="14" lengthAdjust="spacingAndGlyphs" textLength="21" x="225.5" y="83.4399">API</text><path d="M218.5,42 L218.5,66 M218.5,54 L235.5,54 " fill="none" filter="url(#fe24u7k5jrebq)" style="stroke: #A80036; stroke-width: 2.0;"/><ellipse cx="247.5" cy="54" fill="#FEFECE" filter="url(#fe24u7k5jrebq)" rx="12" ry="12" style="stroke: #A80036; stroke-width: 2.0;"/><text fill="#000000" font-family="sans-serif" font-size="14" lengthAdjust="spacingAndGlyphs" textLength="21" x="225.5" y="876.8421">API</text><path d="M218.5,883.4881 L218.5,907.4881 M218.5,895.4881 L235.5,895.4881 " fill="none" filter="url(#fe24u7k5jrebq)" style="stroke: #A80036; stroke-width: 2.0;"/><ellipse cx="247.5" cy="895.4881" fill="#FEFECE" filter="url(#fe24u7k5jrebq)" rx="12" ry="12" style="stroke: #A80036; stroke-width: 2.0;"/><text fill="#000000" font-family="sans-serif" font-size="14" lengthAdjust="spacingAndGlyphs" textLength="56" x="315" y="83.4399">Mutante</text><ellipse cx="346" cy="54" fill="#FEFECE" filter="url(#fe24u7k5jrebq)" rx="12" ry="12" style="stroke: #A80036; stroke-width: 2.0;"/><polygon fill="#A80036" points="342,42,348,37,346,42,348,47,342,42" style="stroke: #A80036; stroke-width: 1.0;"/><text fill="#000000" font-family="sans-serif" font-size="14" lengthAdjust="spacingAndGlyphs" textLength="56" x="315" y="876.8421">Mutante</text><ellipse cx="346" cy="895.4881" fill="#FEFECE" filter="url(#fe24u7k5jrebq)" rx="12" ry="12" style="stroke: #A80036; stroke-width: 2.0;"/><polygon fill="#A80036" points="342,883.4881,348,878.4881,346,883.4881,348,888.4881,342,883.4881" style="stroke: #A80036; stroke-width: 1.0;"/><text fill="#000000" font-family="sans-serif" font-size="14" lengthAdjust="spacingAndGlyphs" textLength="19" x="474.5" y="83.4399">DB</text><ellipse cx="487" cy="54" fill="#FEFECE" filter="url(#fe24u7k5jrebq)" rx="12" ry="12" style="stroke: #A80036; stroke-width: 2.0;"/><polygon fill="#A80036" points="483,42,489,37,487,42,489,47,483,42" style="stroke: #A80036; stroke-width: 1.0;"/><text fill="#000000" font-family="sans-serif" font-size="14" lengthAdjust="spacingAndGlyphs" textLength="19" x="474.5" y="876.8421">DB</text><ellipse cx="487" cy="895.4881" fill="#FEFECE" filter="url(#fe24u7k5jrebq)" rx="12" ry="12" style="stroke: #A80036; stroke-width: 2.0;"/><polygon fill="#A80036" points="483,883.4881,489,878.4881,487,883.4881,489,888.4881,483,883.4881" style="stroke: #A80036; stroke-width: 1.0;"/><text fill="#000000" font-family="sans-serif" font-size="14" lengthAdjust="spacingAndGlyphs" textLength="24" x="514" y="83.4399">HLL</text><ellipse cx="529" cy="54" fill="#FEFECE" filter="url(#fe24u7k5jrebq)" rx="12" ry="12" style="stroke: #A80036; stroke-width: 2.0;"/><polygon fill="#A80036" points="525,42,531,37,529,42,531,47,525,42" style="stroke: #A80036; stroke-width: 1.0;"/><text fill="#000000" font-family="sans-serif" font-size="14" lengthAdjust="spacingAndGlyphs" textLength="24" x="514" y="876.8421">HLL</text><ellipse cx="529" cy="895.4881" fill="#FEFECE" filter="url(#fe24u7k5jrebq)" rx="12" ry="12" style="stroke: #A80036; stroke-width: 2.0;"/><polygon fill="#A80036" points="525,883.4881,531,878.4881,529,883.4881,531,888.4881,525,883.4881" style="stroke: #A80036; stroke-width: 1.0;"/><text fill="#000000" font-family="sans-serif" font-size="14" lengthAdjust="spacingAndGlyphs" textLength="29" x="555" y="83.4399">DNA</text><ellipse cx="572.5" cy="54" fill="#FEFECE" filter="url(#fe24u7k5jrebq)" rx="12" ry="12" style="stroke: #A80036; stroke-width: 2.0;"/><line style="stroke: #A80036; stroke-width: 2.0;" x1="560.5" x2="584.5" y1="68" y2="68"/><text fill="#000000" font-family="sans-serif" font-size="14" lengthAdjust="spacingAndGlyphs" textLength="29" x="555" y="876.8421">DNA</text><ellipse cx="572.5" cy="895.4881" fill="#FEFECE" filter="url(#fe24u7k5jrebq)" rx="12" ry="12" style="stroke: #A80036; stroke-width: 2.0;"/><line style="stroke: #A80036; stroke-width: 2.0;" x1="560.5" x2="584.5" y1="909.4881" y2="909.4881"/><text fill="#000000" font-family="sans-serif" font-size="14" lengthAdjust="spacingAndGlyphs" textLength="64" x="600" y="83.4399">MongoDB</text><path d="M617,34 C617,24 635,24 635,24 C635,24 653,24 653,34 L653,60 C653,70 635,70 635,70 C635,70 617,70 617,60 L617,34 " fill="#FEFECE" filter="url(#fe24u7k5jrebq)" style="stroke: #000000; stroke-width: 1.5;"/><path d="M617,34 C617,44 635,44 635,44 C635,44 653,44 653,34 " fill="none" style="stroke: #000000; stroke-width: 1.5;"/><text fill="#000000" font-family="sans-serif" font-size="14" lengthAdjust="spacingAndGlyphs" textLength="64" x="600" y="876.8421">MongoDB</text><path d="M617,889.4881 C617,879.4881 635,879.4881 635,879.4881 C635,879.4881 653,879.4881 653,889.4881 L653,915.4881 C653,925.4881 635,925.4881 635,925.4881 C635,925.4881 617,925.4881 617,915.4881 L617,889.4881 " fill="#FEFECE" filter="url(#fe24u7k5jrebq)" style="stroke: #000000; stroke-width: 1.5;"/><path d="M617,889.4881 C617,899.4881 635,899.4881 635,899.4881 C635,899.4881 653,899.4881 653,889.4881 " fill="none" style="stroke: #000000; stroke-width: 1.5;"/><text fill="#000000" font-family="sans-serif" font-size="14" lengthAdjust="spacingAndGlyphs" textLength="34" x="680" y="83.4399">Redis</text><path d="M682,34 C682,24 700,24 700,24 C700,24 718,24 718,34 L718,60 C718,70 700,70 700,70 C700,70 682,70 682,60 L682,34 " fill="#FEFECE" filter="url(#fe24u7k5jrebq)" style="stroke: #000000; stroke-width: 1.5;"/><path d="M682,34 C682,44 700,44 700,44 C700,44 718,44 718,34 " fill="none" style="stroke: #000000; stroke-width: 1.5;"/><text fill="#000000" font-family="sans-serif" font-size="14" lengthAdjust="spacingAndGlyphs" textLength="34" x="680" y="876.8421">Redis</text><path d="M682,889.4881 C682,879.4881 700,879.4881 700,879.4881 C700,879.4881 718,879.4881 718,889.4881 L718,915.4881 C718,925.4881 700,925.4881 700,925.4881 C700,925.4881 682,925.4881 682,915.4881 L682,889.4881 " fill="#FEFECE" filter="url(#fe24u7k5jrebq)" style="stroke: #000000; stroke-width: 1.5;"/><path d="M682,889.4881 C682,899.4881 700,899.4881 700,899.4881 C700,899.4881 718,899.4881 718,889.4881 " fill="none" style="stroke: #000000; stroke-width: 1.5;"/><polygon fill="#A80036" points="227,113.0229,237,117.0229,227,121.0229,231,117.0229" style="stroke: #A80036; stroke-width: 1.0;"/><line style="stroke: #A80036; stroke-width: 1.0;" x1="55" x2="233" y1="117.0229" y2="117.0229"/><text fill="#000000" font-family="sans-serif" font-size="13" lengthAdjust="spacingAndGlyphs" textLength="160" x="62" y="112.5659">POST /mutant {"dna": "[...]"}</text><polygon fill="#A80036" points="334,141.96,344,145.96,334,149.96,338,145.96" style="stroke: #A80036; stroke-width: 1.0;"/><line style="stroke: #A80036; stroke-width: 1.0;" x1="239" x2="340" y1="145.96" y2="145.96"/><text fill="#000000" font-family="sans-serif" font-size="13" lengthAdjust="spacingAndGlyphs" textLength="83" x="246" y="141.503">IsMutant(dna)</text><line style="stroke: #A80036; stroke-width: 1.0;" x1="346" x2="388" y1="174.897" y2="174.897"/><line style="stroke: #A80036; stroke-width: 1.0;" x1="388" x2="388" y1="174.897" y2="187.897"/><line style="stroke: #A80036; stroke-width: 1.0;" x1="347" x2="388" y1="187.897" y2="187.897"/><polygon fill="#A80036" points="357,183.897,347,187.897,357,191.897,353,187.897" style="stroke: #A80036; stroke-width: 1.0;"/><text fill="#000000" font-family="sans-serif" font-size="13" lengthAdjust="spacingAndGlyphs" textLength="94" x="353" y="170.44">checkDNA(dna)</text><path d="M305,202.897 L417,202.897 L417,208.897 L407,218.897 L305,218.897 L305,202.897 " fill="#EEEEEE" style="stroke: #000000; stroke-width: 1.0;"/><rect fill="none" height="132.6851" style="stroke: #000000; stroke-width: 2.0;" width="375" x="305" y="202.897"/><text fill="#000000" font-family="sans-serif" font-size="13" font-weight="bold" lengthAdjust="spacingAndGlyphs" textLength="67" x="320" y="216.377">checkDNA</text><polygon fill="#A80036" points="475,236.771,485,240.771,475,244.771,479,240.771" style="stroke: #A80036; stroke-width: 1.0;"/><line style="stroke: #A80036; stroke-width: 1.0;" x1="346" x2="481" y1="240.771" y2="240.771"/><text fill="#000000" font-family="sans-serif" font-size="13" lengthAdjust="spacingAndGlyphs" textLength="55" x="353" y="236.314">Find(dna)</text><polygon fill="#A80036" points="623,265.708,633,269.708,623,273.708,627,269.708" style="stroke: #A80036; stroke-width: 1.0;"/><line style="stroke: #A80036; stroke-width: 1.0;" x1="487" x2="629" y1="269.708" y2="269.708"/><text fill="#000000" font-family="sans-serif" font-size="13" lengthAdjust="spacingAndGlyphs" textLength="37" x="494" y="265.251">Query</text><polygon fill="#A80036" points="498,294.645,488,298.645,498,302.645,494,298.645" style="stroke: #A80036; stroke-width: 1.0;"/><line style="stroke: #A80036; stroke-width: 1.0; stroke-dasharray: 2.0,2.0;" x1="492" x2="634" y1="298.645" y2="298.645"/><text fill="#000000" font-family="sans-serif" font-size="13" lengthAdjust="spacingAndGlyphs" textLength="78" x="504" y="294.188">exists, result</text><polygon fill="#A80036" points="357,323.582,347,327.582,357,331.582,353,327.582" style="stroke: #A80036; stroke-width: 1.0;"/><line style="stroke: #A80036; stroke-width: 1.0; stroke-dasharray: 2.0,2.0;" x1="351" x2="486" y1="327.582" y2="327.582"/><text fill="#000000" font-family="sans-serif" font-size="13" lengthAdjust="spacingAndGlyphs" textLength="78" x="363" y="323.125">exists, result</text><line style="stroke: #A80036; stroke-width: 1.0; stroke-dasharray: 2.0,2.0;" x1="346" x2="388" y1="348.582" y2="348.582"/><line style="stroke: #A80036; stroke-width: 1.0; stroke-dasharray: 2.0,2.0;" x1="388" x2="388" y1="348.582" y2="361.582"/><line style="stroke: #A80036; stroke-width: 1.0; stroke-dasharray: 2.0,2.0;" x1="347" x2="388" y1="361.582" y2="361.582"/><polygon fill="#A80036" points="357,357.582,347,361.582,357,365.582,353,361.582" style="stroke: #A80036; stroke-width: 1.0;"/><path d="M295,376.582 L362,376.582 L362,382.582 L352,392.582 L295,392.582 L295,376.582 " fill="#EEEEEE" style="stroke: #000000; stroke-width: 1.0;"/><rect fill="none" height="338.4331" style="stroke: #000000; stroke-width: 2.0;" width="464" x="295" y="376.582"/><text fill="#000000" font-family="sans-serif" font-size="13" font-weight="bold" lengthAdjust="spacingAndGlyphs" textLength="22" x="310" y="390.0621">opt</text><text fill="#000000" font-family="sans-serif" font-size="11" font-weight="bold" lengthAdjust="spacingAndGlyphs" textLength="144" x="377" y="389.142">[no existe: (exists == false)]</text><line style="stroke: #A80036; stroke-width: 1.0;" x1="346" x2="388" y1="414.4561" y2="414.4561"/><line style="stroke: #A80036; stroke-width: 1.0;" x1="388" x2="388" y1="414.4561" y2="427.4561"/><line style="stroke: #A80036; stroke-width: 1.0;" x1="347" x2="388" y1="427.4561" y2="427.4561"/><polygon fill="#A80036" points="357,423.4561,347,427.4561,357,431.4561,353,427.4561" style="stroke: #A80036; stroke-width: 1.0;"/><text fill="#000000" font-family="sans-serif" font-size="13" lengthAdjust="spacingAndGlyphs" textLength="127" x="353" y="409.9991">saveDNA(dna, result)</text><path d="M492,400.0191 L492,424.0191 L735,424.0191 L735,410.0191 L725,400.0191 L492,400.0191 " fill="#FBFB77" filter="url(#fe24u7k5jrebq)" style="stroke: #A80036; stroke-width: 1.0;"/><path d="M725,400.0191 L725,410.0191 L735,410.0191 L725,400.0191 " fill="#FBFB77" style="stroke: #A80036; stroke-width: 1.0;"/><text fill="#000000" font-family="sans-serif" font-size="13" lengthAdjust="spacingAndGlyphs" textLength="222" x="498" y="417.4991">result: Resultado del analisis de ADN</text><path d="M305,442.4561 L408,442.4561 L408,448.4561 L398,458.4561 L305,458.4561 L305,442.4561 " fill="#EEEEEE" style="stroke: #000000; stroke-width: 1.0;"/><rect fill="none" height="238.5591" style="stroke: #000000; stroke-width: 2.0;" width="444" x="305" y="442.4561"/><text fill="#000000" font-family="sans-serif" font-size="13" font-weight="bold" lengthAdjust="spacingAndGlyphs" textLength="58" x="320" y="455.9361">saveDNA</text><polygon fill="#A80036" points="517,488.7986,527,492.7986,517,496.7986,521,492.7986" style="stroke: #A80036; stroke-width: 1.0;"/><line style="stroke: #A80036; stroke-width: 1.0;" x1="346" x2="523" y1="492.7986" y2="492.7986"/><text fill="#000000" font-family="sans-serif" font-size="13" lengthAdjust="spacingAndGlyphs" textLength="119" x="353" y="488.3416">AddToHLL(set, dna)</text><path d="M534,464.3931 L534,503.3931 L700,503.3931 L700,474.3931 L690,464.3931 L534,464.3931 " fill="#FBFB77" filter="url(#fe24u7k5jrebq)" style="stroke: #A80036; stroke-width: 1.0;"/><path d="M690,464.3931 L690,474.3931 L700,474.3931 L690,464.3931 " fill="#FBFB77" style="stroke: #A80036; stroke-width: 1.0;"/><text fill="#000000" font-family="sans-serif" font-size="13" lengthAdjust="spacingAndGlyphs" textLength="145" x="540" y="481.8731">mutante: set = "mutant"</text><text fill="#000000" font-family="sans-serif" font-size="13" lengthAdjust="spacingAndGlyphs" textLength="137" x="540" y="496.8101">humano: set = "human"</text><polygon fill="#A80036" points="688,530.2041,698,534.2041,688,538.2041,692,534.2041" style="stroke: #A80036; stroke-width: 1.0;"/><line style="stroke: #A80036; stroke-width: 1.0;" x1="529" x2="694" y1="534.2041" y2="534.2041"/><text fill="#000000" font-family="sans-serif" font-size="13" lengthAdjust="spacingAndGlyphs" textLength="96" x="536" y="529.7471">PFAdd(set, dna)</text><polygon fill="#A80036" points="540,544.2041,530,548.2041,540,552.2041,536,548.2041" style="stroke: #A80036; stroke-width: 1.0;"/><line style="stroke: #A80036; stroke-width: 1.0; stroke-dasharray: 2.0,2.0;" x1="534" x2="699" y1="548.2041" y2="548.2041"/><polygon fill="#A80036" points="357,558.2041,347,562.2041,357,566.2041,353,562.2041" style="stroke: #A80036; stroke-width: 1.0;"/><line style="stroke: #A80036; stroke-width: 1.0; stroke-dasharray: 2.0,2.0;" x1="351" x2="528" y1="562.2041" y2="562.2041"/><polygon fill="#A80036" points="475,599.6096,485,603.6096,475,607.6096,479,603.6096" style="stroke: #A80036; stroke-width: 1.0;"/><line style="stroke: #A80036; stroke-width: 1.0;" x1="346" x2="481" y1="603.6096" y2="603.6096"/><text fill="#000000" font-family="sans-serif" font-size="13" lengthAdjust="spacingAndGlyphs" textLength="80" x="353" y="599.1526">Save(dnaObj)</text><path d="M492,575.2041 L492,614.2041 L730,614.2041 L730,585.2041 L720,575.2041 L492,575.2041 " fill="#FBFB77" filter="url(#fe24u7k5jrebq)" style="stroke: #A80036; stroke-width: 1.0;"/><path d="M720,575.2041 L720,585.2041 L730,585.2041 L720,575.2041 " fill="#FBFB77" style="stroke: #A80036; stroke-width: 1.0;"/><text fill="#000000" font-family="sans-serif" font-size="13" lengthAdjust="spacingAndGlyphs" textLength="217" x="498" y="592.6841">dnaObj: Modelo de ADN y resultado</text><text fill="#000000" font-family="sans-serif" font-size="13" lengthAdjust="spacingAndGlyphs" textLength="116" x="498" y="607.6211">para base de datos</text><polygon fill="#A80036" points="623,641.0152,633,645.0152,623,649.0152,627,645.0152" style="stroke: #A80036; stroke-width: 1.0;"/><line style="stroke: #A80036; stroke-width: 1.0;" x1="487" x2="629" y1="645.0152" y2="645.0152"/><text fill="#000000" font-family="sans-serif" font-size="13" lengthAdjust="spacingAndGlyphs" textLength="111" x="494" y="640.5582">InsertOne(dnaObj)</text><polygon fill="#A80036" points="498,655.0152,488,659.0152,498,663.0152,494,659.0152" style="stroke: #A80036; stroke-width: 1.0;"/><line style="stroke: #A80036; stroke-width: 1.0; stroke-dasharray: 2.0,2.0;" x1="492" x2="634" y1="659.0152" y2="659.0152"/><polygon fill="#A80036" points="357,669.0152,347,673.0152,357,677.0152,353,673.0152" style="stroke: #A80036; stroke-width: 1.0;"/><line style="stroke: #A80036; stroke-width: 1.0; stroke-dasharray: 2.0,2.0;" x1="351" x2="486" y1="673.0152" y2="673.0152"/><line style="stroke: #A80036; stroke-width: 1.0; stroke-dasharray: 2.0,2.0;" x1="346" x2="388" y1="694.0152" y2="694.0152"/><line style="stroke: #A80036; stroke-width: 1.0; stroke-dasharray: 2.0,2.0;" x1="388" x2="388" y1="694.0152" y2="707.0152"/><line style="stroke: #A80036; stroke-width: 1.0; stroke-dasharray: 2.0,2.0;" x1="347" x2="388" y1="707.0152" y2="707.0152"/><polygon fill="#A80036" points="357,703.0152,347,707.0152,357,711.0152,353,707.0152" style="stroke: #A80036; stroke-width: 1.0;"/><polygon fill="#A80036" points="250,738.9522,240,742.9522,250,746.9522,246,742.9522" style="stroke: #A80036; stroke-width: 1.0;"/><line style="stroke: #A80036; stroke-width: 1.0; stroke-dasharray: 2.0,2.0;" x1="244" x2="345" y1="742.9522" y2="742.9522"/><text fill="#000000" font-family="sans-serif" font-size="13" lengthAdjust="spacingAndGlyphs" textLength="36" x="256" y="738.4952">result</text><path d="M13,757.9522 L75,757.9522 L75,763.9522 L65,773.9522 L13,773.9522 L13,757.9522 " fill="#EEEEEE" style="stroke: #000000; stroke-width: 1.0;"/><rect fill="none" height="89.4499" style="stroke: #000000; stroke-width: 2.0;" width="260.5" x="13" y="757.9522"/><text fill="#000000" font-family="sans-serif" font-size="13" font-weight="bold" lengthAdjust="spacingAndGlyphs" textLength="17" x="28" y="771.4322">alt</text><text fill="#000000" font-family="sans-serif" font-size="11" font-weight="bold" lengthAdjust="spacingAndGlyphs" textLength="133" x="90" y="770.5121">[mutante (result == true)]</text><polygon fill="#A80036" points="66,791.8262,56,795.8262,66,799.8262,62,795.8262" style="stroke: #A80036; stroke-width: 1.0;"/><line style="stroke: #A80036; stroke-width: 1.0; stroke-dasharray: 2.0,2.0;" x1="60" x2="238" y1="795.8262" y2="795.8262"/><text fill="#000000" font-family="sans-serif" font-size="13" lengthAdjust="spacingAndGlyphs" textLength="76" x="72" y="791.3692">HTTP 200 OK</text><line style="stroke: #000000; stroke-width: 1.0; stroke-dasharray: 2.0,2.0;" x1="13" x2="273.5" y1="804.8262" y2="804.8262"/><text fill="#000000" font-family="sans-serif" font-size="11" font-weight="bold" lengthAdjust="spacingAndGlyphs" textLength="133" x="18" y="815.3861">[humano (result == false)]</text><polygon fill="#A80036" points="66,835.4021,56,839.4021,66,843.4021,62,839.4021" style="stroke: #A80036; stroke-width: 1.0;"/><line style="stroke: #A80036; stroke-width: 1.0; stroke-dasharray: 2.0,2.0;" x1="60" x2="238" y1="839.4021" y2="839.4021"/><text fill="#000000" font-family="sans-serif" font-size="13" lengthAdjust="spacingAndGlyphs" textLength="120" x="72" y="834.9451">HTTP 403 Forbidden</text><!--
@startuml secuencia
actor Magneto
boundary API
control Mutante
control DB
control HLL
entity DNA
database MongoDB
database Redis

Magneto -> API: POST /mutant {"dna": "[...]"}
API -> Mutante: IsMutant(dna)
Mutante -> Mutante: checkDNA(dna)
group checkDNA
    Mutante -> DB: Find(dna)
    DB -> MongoDB: Query
    MongoDB - -> DB: exists, result
    DB - -> Mutante: exists, result
end
Mutante - -> Mutante
opt no existe: (exists == false)
    Mutante -> Mutante: saveDNA(dna, result)
    note right: result: Resultado del analisis de ADN
    group saveDNA
        Mutante -> HLL: AddToHLL(set, dna)
        note right: mutante: set = "mutant"\nhumano: set = "human"
        HLL -> Redis: PFAdd(set, dna)
        Redis - -> HLL
        HLL - -> Mutante
        Mutante -> DB: Save(dnaObj)
        note right: dnaObj: Modelo de ADN y resultado\npara base de datos
        DB -> MongoDB: InsertOne(dnaObj)
        MongoDB - -> DB
        DB - -> Mutante
    end
    Mutante - -> Mutante
end
Mutante - -> API: result
alt mutante (result == true)
    API - -> Magneto: HTTP 200 OK
else humano (result == false)
    API - -> Magneto: HTTP 403 Forbidden
end
@enduml

PlantUML version 1.2019.09(Mon Aug 26 13:19:51 ART 2019)
(GPL source distribution)
Java Runtime: OpenJDK Runtime Environment
JVM: OpenJDK 64-Bit Server VM
Java Version: 11.0.6+10
Operating System: Linux
OS Version: 5.5.6-zen1-1-zen
Default Encoding: UTF-8
Language: en
Country: US
--></g></svg>